/* XPM */
static char *result[] = {
/* columns rows colors chars-per-pixel */
"64 64 18 1 ",
"  c black",
". c #202020",
"X c #2C2C2C",
"o c gray22",
"O c #00007C",
"+ c #484848",
"@ c gray33",
"# c #646464",
"$ c gray44",
"% c #7C7C7C",
"& c gray55",
"* c #989898",
"= c gray66",
"- c #B4B4B4",
"; c #C0C0C0",
": c #D0D0D0",
"> c gainsboro",
", c #ECECEC",
/* pixels */
"@@@@@@@@@@@@@@@@@@.....@@@@++++++++@@@@@@@@@@@@@@@@@@@@@@@@@@@@X",
">>>>>>>>>>>>>>>>>>>>=$.@+=;>>>>>>>:=%+o@@$=>>>;=&&$#@+++++++++@X",
">>>;;;;;;;;;;;;;;;;;$@.@=>>:::::::::=%o+@=>>>>>>>>>>>>>>>>:;;-*X",
">>;&*=====*==&=&===&@@.@->;&=&===&==%@o+@>>:=&=&;;:>>>>>>>>>>>>X",
">;===%&==*=*==*=&%&=@@.@-;&**=&=&==&#@o+@>>&&=&&&&=&&&==&&==&&=X",
"-;&=&=%=&**&&%*&=&=&$@.@-;=&=&=&=&&=#@o+@>>=&&&*&=&&=&%&=&%&=&&X",
"-;*==&=&&&**&%*=&&&&%@.@-;&==*&&&&=&#@o+@>:=&&&*=&&*&=*=&=*=&=*X",
"&;&*&=&=*=*=**&&&*&*%@.@-;&=*&&%%=&*#@o+@>:*&&&=&&*%%=**==**=%*X",
"&;&&*&&&&&&*&&=&**&*&@.@-;=*&&&%%&&&#@o+@>:&%&*=&&&%&&=&=&=&=&*X",
"$;=&*==*&*=&*&**=&*&&@.@-;&&=&*&**%&#@o+@>:&*=&&=*&&=*&***&***& ",
"@;&*&=&&*=&&&%*=&*&&&@.@-;&=&%&=&&%=#@o+@>:&=&=&&&*&&*&$$##@@@@ ",
"@;%==&*&*==*&*=&&&**&@.@-;=&=&=&&&=&@@X+@>:=&&$###@@@@@@@@@@++o ",
"@%@@@@@#$%%*==&=&==&%@.+-;&&&*&=%=&*@@X+@>;$#@@@@@@@@++ooX..... ",
"....o++@@@@@@@@@@@@@@X.+-;&&=**=&&*&@@X+@;&@@ooX............... ",
"o......XXXXXXXXXXXXXX..+-;=&&%*&=&&%@@X++o............XXooooo+@X",
"%$@+oo...............oo+-;&*&=**&*&#@+X++@@@@@@@@@@@@@@@@@@$%==X",
">>;;=&%@@@@+++ooX....oo+-;*&%*&&%%*#@+X+@@@@@$&;>>>>;*o@@%*;,,,X",
">>>>>>>>>>>>>>>>>>;=+.o+-;=&*&=&%%*#@+X+@+*->>>>;==&&@o@&;>>-;*.",
"=;;:>>>>>>>>>>>>>;=$@.o+-;=*&=&&&*&@@oX+@*>:=&=&=&&=&@o@=>:;;*-%",
"===*&;;=;=;-=*==*=&@@.X+-;&=*&=&=&=@@oX+@>>&&=&&*&*&&@o@;>-=**=%",
"&&&&=*&*&==&*=&==&=@@.X+-;**=%&*&&&@@oX+@>>&*=**&&=&&@o@;>;&*&&#",
"&*&*====*&&=&=&&*&&@@.X+-;==&=&%%*&@@XX+@->&&=&&*&*&&@.@;>=&&&*+",
"==&=*=&*==*&&*&=&&*@@..+-;=&=&&%%&&@@.X+@*>*&&&*&=&=*@.+>>&*==*@",
"&&=&*&&&&=&=&&&&*&=@@X.o-;&&&&*&&&=@@.X+@$>&&&**&&&&&@.+>>=&*&&#",
"=&&*&=*&=**=&&&=&&=@@X.o-;&=%%&&=&%@@.X+@+>&*=&&=&&=*@.+>>&=***+",
"@@@$$&&&&&&&&&&&&&$@@X.o-;=&=*%&&&&@@.X+@+>&=&%$@@@@@@.+>=%@@@@X",
"@@@@@@@@@@@@@@@@@@@@@X.o-;&=&&&=&=&@@.X+@+&@@@@@oooooo.+=%@@@@@X",
"....oooooooooooooooooX.o-;&&=*%&&&*@@.X+@+......................",
".......................o-;==&&=&**&@+.X+@+oooooXXXXoooo.........",
"@+ooXXX................o-;%&**&***#@+.X+@@@@@@@@@@@@@@@@@@@@o@@X",
"@@@+++++++++++++++++.oo@-;&=&*&&%#@+o.o+@@$=;>>>>>>>>>>>>>;=Xo@X",
"@$=->>>>>>>>>>>>>>>=.o@@-;=&=*&#@@oX..o@@$=>>>>>>>>>>>>>>;=$XX@X",
"+=>>>>>>>>>>>>>>>>=$.o@@-;&%&&#@+o...o@@@$>>;=&&&&=&&&=&=&$@.X@X",
"+->-===&=&==&=&=&=$+.o@@-;&&==@+o..o@@@@@=>>&&=&&=&&&=*&&&@o..@X",
"+>>&=&===&=*&&=&&&@+.o@@-;=&&&@o.o@*>>;@@;>;*&&=&&&*=&&=&&@o..@X",
"+>>=**&*&=*&=&&&=&@o.o@@-;&*&&@o.@>>>;*@@>>&*&*&*&&&*&=*=*@o..@X",
"+>>&*&=&*&&*&&&=*&@o.o@@-;=&$#@..*>&==%@@>>&=&*&==*&&&**&*@o..@X",
"+>=&&=&&&&&&&*=&&*@o.o@@-;&*#@o..>==**o@+>>&*=**=*=&*&&**=@o..@X",
"+=$$$&&*&=&=&=&=&&@o.o@@-;*&#@o.&>=**&o@+>>=&&&&&**====*&=@o..@X",
"+@@@+$==&&&&=&&*&@@o.o@@--*#@@X.;;*=&$.@+>>&=&&==&&=&=&==&@o..@X",
"+oo..+@@@@@@@@@@@@+o.o@@--#@@o..>&=**@.@+>>===&=&==&=*=&*&@o..@X",
"@@@o..ooooooooooooo..o@@-=@@oX.o>=**&@.@+>>&*&=&=&&&&*&*&=@o..@X",
"@@@@o................o@@=@ooX..@%==&*@.@+>>&&*&&&&&&&&*&&$@o..@X",
"@@@@@ooXXXXXXXXXXXXXXo@oooX...o@.+.o@@.@+>-*$@@@@@@@@@@@@@@o..@X",
"@++@@@@@@@@@@@@@@@@@@@oo....o@@@@......@+-*$@ooooooooooooooo..@X",
"*;;;;-*$#@@@@@@@@@@++++++++++++++@@oo..@oo...................o@X",
";>>>>>>>>>>;*$@@@@+=>>>>>>>>>>>=&$+++@@@ooX.................oo@X",
";>>:::::::::::-@o@+>>;;;;;;;;;;>>>>>=$++o@@oXXXXXXXXXXXXXXXoo@@X",
";>:*&&&&==*&=&#@o@+>;&=&==*&*=&=&;;;;;;$++o@@@@++++++@++++++++.X",
";:*&&*===*&&&&#@o@+>;*==&=&==&=&&&&=&=&;=+.o@@%==============%.X",
";:&*=&&&*&&=&&#@.@+>;&*&=&=&&&&%*&==&&&&$@.o@%=>>>>>>>>>>>>>;@.X",
";:=&==&=*&=&*%@o.@+>;&&=&&&&*&&===%&=&&*@@.o@=>>=&=&&&==&&=&&@.X",
";:==*&*&&&&=&$@o.@#>;&&*&&&&*&&=*&===***@@.o@=>;&=&&&&=&=&&=&@.X",
";:&*&=&=&=&*&$@X.@$>;=&%&*&*%%**=*==&=&$@@.o@=>&=&=&=*&&=&*&=@.X",
";:=&*&&&*&=&*#@.X@*>;%&&=*&&%%&*&=&**=&@@o.+@=>&*&=*&&&*&=&=&@.X",
";:&=&*&&&&&=&#+.o@=>;&*=&&=&&=*&=*=&=&=@@o.+@=;&&&***&=&*&**#@.X",
";:&&*&&&&&&&&@+.o+>>=&=&=&&*&&**&*&=&*&@@o.@@=%#############@@.X",
";:=&&&&&=&*&=@o.o+>=$@@@@@@@@@@@@@@@@@@@@..@@%@@@@@@@@@@@@@@@o.X",
";:&&&=&*&==&#@o.++=$@@@@@@@@@@@@@@@@@@@@o.X@oX.................X",
"*-##########@+o.@+........................o@oo.................X",
"@$++++ooooooooX.@+........................o@@ooooooooooooooooo@X",
"................@@+oXXXXXXXXXXXXXXXXXXXXXo@@@@@@@@@@@@@@@@@@@@@X",
"oooooooooooooooooooooooooooooooooooooooooooooooooooooooooooooooo",
"OOOOOOOOOOOOOOOOOOOOOOOOOOOooOOOOOOOOOOOOOooOOOOOOOOOOOOoOOOOOoo"
};
